<mxfile host="Electron" agent="Mozilla/5.0 (X11; Linux x86_64) AppleWebKit/537.36 (KHTML, like Gecko) draw.io/24.7.17 Chrome/128.0.6613.36 Electron/32.0.1 Safari/537.36" version="24.7.17">
  <diagram name="Page-1" id="Bgo-FpWaR2UOzJnFJCvu">
    <mxGraphModel dx="867" dy="847" grid="1" gridSize="10" guides="1" tooltips="1" connect="1" arrows="1" fold="1" page="1" pageScale="1" pageWidth="850" pageHeight="1100" math="1" shadow="0">
      <root>
        <mxCell id="0" />
        <mxCell id="1" parent="0" />
        <mxCell id="oNooGlTdRXXxpe_JB3kV-112" value="" style="verticalLabelPosition=bottom;shadow=0;dashed=0;align=center;html=1;verticalAlign=top;shape=mxgraph.electrical.transistors.nmos;pointerEvents=1;strokeWidth=2;" parent="1" vertex="1">
          <mxGeometry x="130" y="264" width="60" height="100" as="geometry" />
        </mxCell>
        <mxCell id="oNooGlTdRXXxpe_JB3kV-113" value="" style="verticalLabelPosition=bottom;shadow=0;dashed=0;align=center;html=1;verticalAlign=top;shape=mxgraph.electrical.transistors.nmos;pointerEvents=1;direction=east;flipH=1;strokeWidth=2;" parent="1" vertex="1">
          <mxGeometry x="310" y="264" width="60" height="100" as="geometry" />
        </mxCell>
        <mxCell id="oNooGlTdRXXxpe_JB3kV-114" value="" style="endArrow=none;html=1;rounded=0;strokeWidth=2;" parent="1" edge="1">
          <mxGeometry width="50" height="50" relative="1" as="geometry">
            <mxPoint x="190" y="384" as="sourcePoint" />
            <mxPoint x="310" y="384" as="targetPoint" />
          </mxGeometry>
        </mxCell>
        <mxCell id="oNooGlTdRXXxpe_JB3kV-115" value="" style="endArrow=none;html=1;rounded=0;strokeWidth=2;" parent="1" edge="1">
          <mxGeometry width="50" height="50" relative="1" as="geometry">
            <mxPoint x="190" y="374" as="sourcePoint" />
            <mxPoint x="190" y="354" as="targetPoint" />
            <Array as="points">
              <mxPoint x="190" y="384" />
            </Array>
          </mxGeometry>
        </mxCell>
        <mxCell id="oNooGlTdRXXxpe_JB3kV-116" value="" style="endArrow=none;html=1;rounded=0;strokeWidth=2;" parent="1" edge="1">
          <mxGeometry width="50" height="50" relative="1" as="geometry">
            <mxPoint x="310" y="374" as="sourcePoint" />
            <mxPoint x="310" y="354" as="targetPoint" />
            <Array as="points">
              <mxPoint x="310" y="384" />
            </Array>
          </mxGeometry>
        </mxCell>
        <mxCell id="oNooGlTdRXXxpe_JB3kV-117" value="" style="endArrow=none;html=1;rounded=0;exitX=0.5;exitY=0;exitDx=0;exitDy=0;exitPerimeter=0;strokeWidth=2;" parent="1" edge="1">
          <mxGeometry width="50" height="50" relative="1" as="geometry">
            <mxPoint x="250" y="440" as="sourcePoint" />
            <mxPoint x="250" y="384" as="targetPoint" />
          </mxGeometry>
        </mxCell>
        <mxCell id="oNooGlTdRXXxpe_JB3kV-118" value="" style="endArrow=none;html=1;rounded=0;strokeWidth=2;" parent="1" edge="1">
          <mxGeometry width="50" height="50" relative="1" as="geometry">
            <mxPoint x="190" y="274" as="sourcePoint" />
            <mxPoint x="190" y="204" as="targetPoint" />
          </mxGeometry>
        </mxCell>
        <mxCell id="oNooGlTdRXXxpe_JB3kV-119" value="" style="endArrow=none;html=1;rounded=0;strokeWidth=2;" parent="1" edge="1">
          <mxGeometry width="50" height="50" relative="1" as="geometry">
            <mxPoint x="310" y="274" as="sourcePoint" />
            <mxPoint x="310" y="223" as="targetPoint" />
          </mxGeometry>
        </mxCell>
        <mxCell id="oNooGlTdRXXxpe_JB3kV-120" value="&lt;font color=&quot;#cc00cc&quot; style=&quot;font-size: 16px;&quot;&gt;$$V_\text{ip}$$&lt;/font&gt;" style="text;html=1;align=center;verticalAlign=middle;whiteSpace=wrap;rounded=0;strokeWidth=2;" parent="1" vertex="1">
          <mxGeometry x="90" y="284" width="60" height="30" as="geometry" />
        </mxCell>
        <mxCell id="oNooGlTdRXXxpe_JB3kV-121" value="&lt;font color=&quot;#006600&quot; style=&quot;font-size: 16px;&quot;&gt;$$V_\text{rp}$$&lt;/font&gt;" style="text;html=1;align=center;verticalAlign=middle;whiteSpace=wrap;rounded=0;strokeWidth=2;" parent="1" vertex="1">
          <mxGeometry x="350" y="284" width="60" height="30" as="geometry" />
        </mxCell>
        <mxCell id="oNooGlTdRXXxpe_JB3kV-122" value="" style="verticalLabelPosition=bottom;shadow=0;dashed=0;align=center;html=1;verticalAlign=top;shape=mxgraph.electrical.transistors.nmos;pointerEvents=1;strokeWidth=2;" parent="1" vertex="1">
          <mxGeometry x="460" y="264" width="60" height="101" as="geometry" />
        </mxCell>
        <mxCell id="oNooGlTdRXXxpe_JB3kV-123" value="" style="verticalLabelPosition=bottom;shadow=0;dashed=0;align=center;html=1;verticalAlign=top;shape=mxgraph.electrical.transistors.nmos;pointerEvents=1;direction=east;flipH=1;strokeWidth=2;" parent="1" vertex="1">
          <mxGeometry x="640" y="264" width="60" height="100" as="geometry" />
        </mxCell>
        <mxCell id="oNooGlTdRXXxpe_JB3kV-124" value="" style="endArrow=none;html=1;rounded=0;strokeWidth=2;" parent="1" edge="1">
          <mxGeometry width="50" height="50" relative="1" as="geometry">
            <mxPoint x="520" y="384" as="sourcePoint" />
            <mxPoint x="640" y="384" as="targetPoint" />
          </mxGeometry>
        </mxCell>
        <mxCell id="oNooGlTdRXXxpe_JB3kV-125" value="" style="endArrow=none;html=1;rounded=0;strokeWidth=2;" parent="1" edge="1">
          <mxGeometry width="50" height="50" relative="1" as="geometry">
            <mxPoint x="520" y="374" as="sourcePoint" />
            <mxPoint x="520" y="354" as="targetPoint" />
            <Array as="points">
              <mxPoint x="520" y="384" />
            </Array>
          </mxGeometry>
        </mxCell>
        <mxCell id="oNooGlTdRXXxpe_JB3kV-126" value="" style="endArrow=none;html=1;rounded=0;strokeWidth=2;" parent="1" edge="1">
          <mxGeometry width="50" height="50" relative="1" as="geometry">
            <mxPoint x="640" y="374" as="sourcePoint" />
            <mxPoint x="640" y="354" as="targetPoint" />
            <Array as="points">
              <mxPoint x="640" y="384" />
            </Array>
          </mxGeometry>
        </mxCell>
        <mxCell id="oNooGlTdRXXxpe_JB3kV-127" value="" style="endArrow=none;html=1;rounded=0;exitDx=0;exitDy=0;exitPerimeter=0;strokeWidth=2;" parent="1" source="oNooGlTdRXXxpe_JB3kV-138" edge="1">
          <mxGeometry width="50" height="50" relative="1" as="geometry">
            <mxPoint x="530" y="434" as="sourcePoint" />
            <mxPoint x="580" y="384" as="targetPoint" />
          </mxGeometry>
        </mxCell>
        <mxCell id="oNooGlTdRXXxpe_JB3kV-128" value="" style="endArrow=none;html=1;rounded=0;strokeWidth=2;" parent="1" edge="1">
          <mxGeometry width="50" height="50" relative="1" as="geometry">
            <mxPoint x="520" y="274" as="sourcePoint" />
            <mxPoint x="520" y="253" as="targetPoint" />
          </mxGeometry>
        </mxCell>
        <mxCell id="oNooGlTdRXXxpe_JB3kV-129" value="" style="endArrow=none;html=1;rounded=0;strokeWidth=2;" parent="1" edge="1">
          <mxGeometry width="50" height="50" relative="1" as="geometry">
            <mxPoint x="640" y="274" as="sourcePoint" />
            <mxPoint x="640" y="204" as="targetPoint" />
          </mxGeometry>
        </mxCell>
        <mxCell id="oNooGlTdRXXxpe_JB3kV-130" value="&lt;font color=&quot;#006600&quot; style=&quot;font-size: 16px;&quot;&gt;$$V_\text{rm}$$&lt;/font&gt;" style="text;html=1;align=center;verticalAlign=middle;whiteSpace=wrap;rounded=0;strokeWidth=2;" parent="1" vertex="1">
          <mxGeometry x="420" y="284" width="60" height="30" as="geometry" />
        </mxCell>
        <mxCell id="oNooGlTdRXXxpe_JB3kV-131" value="&lt;font color=&quot;#cc00cc&quot; style=&quot;font-size: 16px;&quot;&gt;$$V_\text{im}$$&lt;/font&gt;" style="text;html=1;align=center;verticalAlign=middle;whiteSpace=wrap;rounded=0;strokeWidth=2;" parent="1" vertex="1">
          <mxGeometry x="680" y="284" width="60" height="30" as="geometry" />
        </mxCell>
        <mxCell id="oNooGlTdRXXxpe_JB3kV-132" value="" style="endArrow=none;html=1;rounded=0;strokeWidth=2;" parent="1" edge="1">
          <mxGeometry width="50" height="50" relative="1" as="geometry">
            <mxPoint x="190" y="254" as="sourcePoint" />
            <mxPoint x="520" y="254" as="targetPoint" />
          </mxGeometry>
        </mxCell>
        <mxCell id="oNooGlTdRXXxpe_JB3kV-133" value="" style="endArrow=none;html=1;rounded=0;strokeWidth=2;" parent="1" edge="1">
          <mxGeometry width="50" height="50" relative="1" as="geometry">
            <mxPoint x="310" y="224" as="sourcePoint" />
            <mxPoint x="640" y="224" as="targetPoint" />
          </mxGeometry>
        </mxCell>
        <mxCell id="oNooGlTdRXXxpe_JB3kV-134" value="" style="shape=waypoint;sketch=0;fillStyle=solid;size=6;pointerEvents=1;points=[];fillColor=none;resizable=0;rotatable=0;perimeter=centerPerimeter;snapToPoint=1;strokeWidth=2;" parent="1" vertex="1">
          <mxGeometry x="180" y="244" width="20" height="20" as="geometry" />
        </mxCell>
        <mxCell id="oNooGlTdRXXxpe_JB3kV-136" value="" style="shape=waypoint;sketch=0;fillStyle=solid;size=6;pointerEvents=1;points=[];fillColor=none;resizable=0;rotatable=0;perimeter=centerPerimeter;snapToPoint=1;strokeWidth=2;" parent="1" vertex="1">
          <mxGeometry x="240" y="374" width="20" height="20" as="geometry" />
        </mxCell>
        <mxCell id="oNooGlTdRXXxpe_JB3kV-137" value="" style="endArrow=none;html=1;rounded=0;exitX=0.5;exitY=0;exitDx=0;exitDy=0;exitPerimeter=0;strokeWidth=2;" parent="1" target="oNooGlTdRXXxpe_JB3kV-138" edge="1">
          <mxGeometry width="50" height="50" relative="1" as="geometry">
            <mxPoint x="580" y="440" as="sourcePoint" />
            <mxPoint x="580" y="384" as="targetPoint" />
          </mxGeometry>
        </mxCell>
        <mxCell id="oNooGlTdRXXxpe_JB3kV-138" value="" style="shape=waypoint;sketch=0;fillStyle=solid;size=6;pointerEvents=1;points=[];fillColor=none;resizable=0;rotatable=0;perimeter=centerPerimeter;snapToPoint=1;strokeWidth=2;" parent="1" vertex="1">
          <mxGeometry x="570" y="374" width="20" height="20" as="geometry" />
        </mxCell>
        <mxCell id="oNooGlTdRXXxpe_JB3kV-140" value="" style="shape=waypoint;sketch=0;fillStyle=solid;size=6;pointerEvents=1;points=[];fillColor=none;resizable=0;rotatable=0;perimeter=centerPerimeter;snapToPoint=1;strokeWidth=2;" parent="1" vertex="1">
          <mxGeometry x="630" y="214" width="20" height="20" as="geometry" />
        </mxCell>
        <mxCell id="oNooGlTdRXXxpe_JB3kV-141" value="" style="endArrow=none;html=1;rounded=0;strokeWidth=2;" parent="1" edge="1">
          <mxGeometry width="50" height="50" relative="1" as="geometry">
            <mxPoint x="249.89999999999998" y="510" as="sourcePoint" />
            <mxPoint x="249.89999999999998" y="490" as="targetPoint" />
          </mxGeometry>
        </mxCell>
        <mxCell id="oNooGlTdRXXxpe_JB3kV-142" value="" style="pointerEvents=1;verticalLabelPosition=bottom;shadow=0;dashed=0;align=center;html=1;verticalAlign=top;shape=mxgraph.electrical.signal_sources.signal_ground;strokeWidth=2;" parent="1" vertex="1">
          <mxGeometry x="239" y="504" width="22" height="20" as="geometry" />
        </mxCell>
        <mxCell id="oNooGlTdRXXxpe_JB3kV-143" value="" style="pointerEvents=1;verticalLabelPosition=bottom;shadow=0;dashed=0;align=center;html=1;verticalAlign=top;shape=mxgraph.electrical.signal_sources.source;aspect=fixed;points=[[0.5,0,0],[1,0.5,0],[0.5,1,0],[0,0.5,0]];elSignalType=dc2;strokeWidth=2;" parent="1" vertex="1">
          <mxGeometry x="225" y="440" width="50" height="50" as="geometry" />
        </mxCell>
        <mxCell id="oNooGlTdRXXxpe_JB3kV-144" value="" style="endArrow=none;html=1;rounded=0;strokeWidth=2;" parent="1" edge="1">
          <mxGeometry width="50" height="50" relative="1" as="geometry">
            <mxPoint x="579.9000000000001" y="510" as="sourcePoint" />
            <mxPoint x="579.9000000000001" y="490" as="targetPoint" />
          </mxGeometry>
        </mxCell>
        <mxCell id="oNooGlTdRXXxpe_JB3kV-145" value="" style="pointerEvents=1;verticalLabelPosition=bottom;shadow=0;dashed=0;align=center;html=1;verticalAlign=top;shape=mxgraph.electrical.signal_sources.signal_ground;strokeWidth=2;" parent="1" vertex="1">
          <mxGeometry x="569" y="504" width="22" height="20" as="geometry" />
        </mxCell>
        <mxCell id="oNooGlTdRXXxpe_JB3kV-146" value="" style="pointerEvents=1;verticalLabelPosition=bottom;shadow=0;dashed=0;align=center;html=1;verticalAlign=top;shape=mxgraph.electrical.signal_sources.source;aspect=fixed;points=[[0.5,0,0],[1,0.5,0],[0.5,1,0],[0,0.5,0]];elSignalType=dc2;strokeWidth=2;" parent="1" vertex="1">
          <mxGeometry x="555" y="440" width="50" height="50" as="geometry" />
        </mxCell>
        <mxCell id="oNooGlTdRXXxpe_JB3kV-147" value="&lt;font color=&quot;#ff0000&quot; style=&quot;font-size: 18px;&quot;&gt;$$V_\text{cmi}$$&lt;/font&gt;" style="text;html=1;align=center;verticalAlign=middle;whiteSpace=wrap;rounded=0;strokeWidth=2;" parent="1" vertex="1">
          <mxGeometry x="90" y="324" width="60" height="30" as="geometry" />
        </mxCell>
        <mxCell id="oNooGlTdRXXxpe_JB3kV-148" value="&lt;font color=&quot;#ff0000&quot; style=&quot;font-size: 18px;&quot;&gt;$$V_\text{cmi}$$&lt;/font&gt;" style="text;html=1;align=center;verticalAlign=middle;whiteSpace=wrap;rounded=0;strokeWidth=2;" parent="1" vertex="1">
          <mxGeometry x="670" y="324" width="60" height="30" as="geometry" />
        </mxCell>
        <mxCell id="oNooGlTdRXXxpe_JB3kV-149" value="&lt;font color=&quot;#ff0000&quot; style=&quot;font-size: 18px;&quot;&gt;$$V_\text{cmr}$$&lt;/font&gt;" style="text;html=1;align=center;verticalAlign=middle;whiteSpace=wrap;rounded=0;strokeWidth=2;" parent="1" vertex="1">
          <mxGeometry x="390" y="314" width="60" height="30" as="geometry" />
        </mxCell>
        <mxCell id="oNooGlTdRXXxpe_JB3kV-151" value="" style="verticalLabelPosition=bottom;shadow=0;dashed=0;align=center;html=1;verticalAlign=top;shape=mxgraph.electrical.transistors.nmos;pointerEvents=1;strokeWidth=2;" parent="1" vertex="1">
          <mxGeometry x="131" y="648" width="60" height="100" as="geometry" />
        </mxCell>
        <mxCell id="oNooGlTdRXXxpe_JB3kV-152" value="" style="verticalLabelPosition=bottom;shadow=0;dashed=0;align=center;html=1;verticalAlign=top;shape=mxgraph.electrical.transistors.nmos;pointerEvents=1;direction=east;flipH=1;strokeWidth=2;" parent="1" vertex="1">
          <mxGeometry x="311" y="648" width="60" height="100" as="geometry" />
        </mxCell>
        <mxCell id="oNooGlTdRXXxpe_JB3kV-153" value="" style="endArrow=none;html=1;rounded=0;strokeWidth=2;" parent="1" edge="1">
          <mxGeometry width="50" height="50" relative="1" as="geometry">
            <mxPoint x="191" y="768" as="sourcePoint" />
            <mxPoint x="311" y="768" as="targetPoint" />
          </mxGeometry>
        </mxCell>
        <mxCell id="oNooGlTdRXXxpe_JB3kV-154" value="" style="endArrow=none;html=1;rounded=0;strokeWidth=2;" parent="1" edge="1">
          <mxGeometry width="50" height="50" relative="1" as="geometry">
            <mxPoint x="191" y="758" as="sourcePoint" />
            <mxPoint x="191" y="738" as="targetPoint" />
            <Array as="points">
              <mxPoint x="191" y="768" />
            </Array>
          </mxGeometry>
        </mxCell>
        <mxCell id="oNooGlTdRXXxpe_JB3kV-155" value="" style="endArrow=none;html=1;rounded=0;strokeWidth=2;" parent="1" edge="1">
          <mxGeometry width="50" height="50" relative="1" as="geometry">
            <mxPoint x="311" y="758" as="sourcePoint" />
            <mxPoint x="311" y="738" as="targetPoint" />
            <Array as="points">
              <mxPoint x="311" y="768" />
            </Array>
          </mxGeometry>
        </mxCell>
        <mxCell id="oNooGlTdRXXxpe_JB3kV-156" value="" style="endArrow=none;html=1;rounded=0;exitX=0.5;exitY=0;exitDx=0;exitDy=0;exitPerimeter=0;strokeWidth=2;" parent="1" edge="1">
          <mxGeometry width="50" height="50" relative="1" as="geometry">
            <mxPoint x="251" y="824" as="sourcePoint" />
            <mxPoint x="251" y="768" as="targetPoint" />
          </mxGeometry>
        </mxCell>
        <mxCell id="oNooGlTdRXXxpe_JB3kV-157" value="" style="endArrow=none;html=1;rounded=0;strokeWidth=2;" parent="1" edge="1">
          <mxGeometry width="50" height="50" relative="1" as="geometry">
            <mxPoint x="191" y="658" as="sourcePoint" />
            <mxPoint x="191" y="588" as="targetPoint" />
          </mxGeometry>
        </mxCell>
        <mxCell id="oNooGlTdRXXxpe_JB3kV-158" value="" style="endArrow=none;html=1;rounded=0;strokeWidth=2;" parent="1" edge="1">
          <mxGeometry width="50" height="50" relative="1" as="geometry">
            <mxPoint x="311" y="658" as="sourcePoint" />
            <mxPoint x="311" y="607" as="targetPoint" />
          </mxGeometry>
        </mxCell>
        <mxCell id="oNooGlTdRXXxpe_JB3kV-159" value="&lt;font color=&quot;#cc00cc&quot; style=&quot;font-size: 16px;&quot;&gt;$$V_\text{ip}$$&lt;/font&gt;" style="text;html=1;align=center;verticalAlign=middle;whiteSpace=wrap;rounded=0;strokeWidth=2;" parent="1" vertex="1">
          <mxGeometry x="91" y="668" width="60" height="30" as="geometry" />
        </mxCell>
        <mxCell id="oNooGlTdRXXxpe_JB3kV-160" value="&lt;font color=&quot;#006600&quot; style=&quot;font-size: 16px;&quot;&gt;$$V_\text{rp}$$&lt;/font&gt;" style="text;html=1;align=center;verticalAlign=middle;whiteSpace=wrap;rounded=0;strokeWidth=2;" parent="1" vertex="1">
          <mxGeometry x="351" y="668" width="60" height="30" as="geometry" />
        </mxCell>
        <mxCell id="oNooGlTdRXXxpe_JB3kV-161" value="" style="verticalLabelPosition=bottom;shadow=0;dashed=0;align=center;html=1;verticalAlign=top;shape=mxgraph.electrical.transistors.nmos;pointerEvents=1;strokeWidth=2;" parent="1" vertex="1">
          <mxGeometry x="461" y="648" width="60" height="101" as="geometry" />
        </mxCell>
        <mxCell id="oNooGlTdRXXxpe_JB3kV-162" value="" style="verticalLabelPosition=bottom;shadow=0;dashed=0;align=center;html=1;verticalAlign=top;shape=mxgraph.electrical.transistors.nmos;pointerEvents=1;direction=east;flipH=1;strokeWidth=2;" parent="1" vertex="1">
          <mxGeometry x="641" y="648" width="60" height="100" as="geometry" />
        </mxCell>
        <mxCell id="oNooGlTdRXXxpe_JB3kV-163" value="" style="endArrow=none;html=1;rounded=0;strokeWidth=2;" parent="1" edge="1">
          <mxGeometry width="50" height="50" relative="1" as="geometry">
            <mxPoint x="521" y="768" as="sourcePoint" />
            <mxPoint x="641" y="768" as="targetPoint" />
          </mxGeometry>
        </mxCell>
        <mxCell id="oNooGlTdRXXxpe_JB3kV-164" value="" style="endArrow=none;html=1;rounded=0;strokeWidth=2;" parent="1" edge="1">
          <mxGeometry width="50" height="50" relative="1" as="geometry">
            <mxPoint x="521" y="758" as="sourcePoint" />
            <mxPoint x="521" y="738" as="targetPoint" />
            <Array as="points">
              <mxPoint x="521" y="768" />
            </Array>
          </mxGeometry>
        </mxCell>
        <mxCell id="oNooGlTdRXXxpe_JB3kV-165" value="" style="endArrow=none;html=1;rounded=0;strokeWidth=2;" parent="1" edge="1">
          <mxGeometry width="50" height="50" relative="1" as="geometry">
            <mxPoint x="641" y="758" as="sourcePoint" />
            <mxPoint x="641" y="738" as="targetPoint" />
            <Array as="points">
              <mxPoint x="641" y="768" />
            </Array>
          </mxGeometry>
        </mxCell>
        <mxCell id="oNooGlTdRXXxpe_JB3kV-166" value="" style="endArrow=none;html=1;rounded=0;exitDx=0;exitDy=0;exitPerimeter=0;strokeWidth=2;" parent="1" source="oNooGlTdRXXxpe_JB3kV-177" edge="1">
          <mxGeometry width="50" height="50" relative="1" as="geometry">
            <mxPoint x="531" y="818" as="sourcePoint" />
            <mxPoint x="581" y="768" as="targetPoint" />
          </mxGeometry>
        </mxCell>
        <mxCell id="oNooGlTdRXXxpe_JB3kV-167" value="" style="endArrow=none;html=1;rounded=0;strokeWidth=2;" parent="1" edge="1">
          <mxGeometry width="50" height="50" relative="1" as="geometry">
            <mxPoint x="521" y="658" as="sourcePoint" />
            <mxPoint x="521" y="637" as="targetPoint" />
          </mxGeometry>
        </mxCell>
        <mxCell id="oNooGlTdRXXxpe_JB3kV-168" value="" style="endArrow=none;html=1;rounded=0;strokeWidth=2;" parent="1" edge="1">
          <mxGeometry width="50" height="50" relative="1" as="geometry">
            <mxPoint x="641" y="658" as="sourcePoint" />
            <mxPoint x="641" y="588" as="targetPoint" />
          </mxGeometry>
        </mxCell>
        <mxCell id="oNooGlTdRXXxpe_JB3kV-169" value="&lt;font color=&quot;#006600&quot; style=&quot;font-size: 16px;&quot;&gt;$$V_\text{rm}$$&lt;/font&gt;" style="text;html=1;align=center;verticalAlign=middle;whiteSpace=wrap;rounded=0;strokeWidth=2;" parent="1" vertex="1">
          <mxGeometry x="421" y="668" width="60" height="30" as="geometry" />
        </mxCell>
        <mxCell id="oNooGlTdRXXxpe_JB3kV-170" value="&lt;font color=&quot;#cc00cc&quot; style=&quot;font-size: 16px;&quot;&gt;$$V_\text{im}$$&lt;/font&gt;" style="text;html=1;align=center;verticalAlign=middle;whiteSpace=wrap;rounded=0;strokeWidth=2;" parent="1" vertex="1">
          <mxGeometry x="681" y="668" width="60" height="30" as="geometry" />
        </mxCell>
        <mxCell id="oNooGlTdRXXxpe_JB3kV-171" value="" style="endArrow=none;html=1;rounded=0;strokeWidth=2;" parent="1" edge="1">
          <mxGeometry width="50" height="50" relative="1" as="geometry">
            <mxPoint x="191" y="638" as="sourcePoint" />
            <mxPoint x="521" y="638" as="targetPoint" />
          </mxGeometry>
        </mxCell>
        <mxCell id="oNooGlTdRXXxpe_JB3kV-172" value="" style="endArrow=none;html=1;rounded=0;strokeWidth=2;" parent="1" edge="1">
          <mxGeometry width="50" height="50" relative="1" as="geometry">
            <mxPoint x="311" y="608" as="sourcePoint" />
            <mxPoint x="641" y="608" as="targetPoint" />
          </mxGeometry>
        </mxCell>
        <mxCell id="oNooGlTdRXXxpe_JB3kV-173" value="" style="shape=waypoint;sketch=0;fillStyle=solid;size=6;pointerEvents=1;points=[];fillColor=none;resizable=0;rotatable=0;perimeter=centerPerimeter;snapToPoint=1;strokeWidth=2;" parent="1" vertex="1">
          <mxGeometry x="181" y="628" width="20" height="20" as="geometry" />
        </mxCell>
        <mxCell id="oNooGlTdRXXxpe_JB3kV-175" value="" style="shape=waypoint;sketch=0;fillStyle=solid;size=6;pointerEvents=1;points=[];fillColor=none;resizable=0;rotatable=0;perimeter=centerPerimeter;snapToPoint=1;strokeWidth=2;" parent="1" vertex="1">
          <mxGeometry x="241" y="758" width="20" height="20" as="geometry" />
        </mxCell>
        <mxCell id="oNooGlTdRXXxpe_JB3kV-176" value="" style="endArrow=none;html=1;rounded=0;exitX=0.5;exitY=0;exitDx=0;exitDy=0;exitPerimeter=0;strokeWidth=2;" parent="1" target="oNooGlTdRXXxpe_JB3kV-177" edge="1">
          <mxGeometry width="50" height="50" relative="1" as="geometry">
            <mxPoint x="581" y="824" as="sourcePoint" />
            <mxPoint x="581" y="768" as="targetPoint" />
          </mxGeometry>
        </mxCell>
        <mxCell id="oNooGlTdRXXxpe_JB3kV-177" value="" style="shape=waypoint;sketch=0;fillStyle=solid;size=6;pointerEvents=1;points=[];fillColor=none;resizable=0;rotatable=0;perimeter=centerPerimeter;snapToPoint=1;strokeWidth=2;" parent="1" vertex="1">
          <mxGeometry x="571" y="758" width="20" height="20" as="geometry" />
        </mxCell>
        <mxCell id="oNooGlTdRXXxpe_JB3kV-179" value="" style="shape=waypoint;sketch=0;fillStyle=solid;size=6;pointerEvents=1;points=[];fillColor=none;resizable=0;rotatable=0;perimeter=centerPerimeter;snapToPoint=1;strokeWidth=2;" parent="1" vertex="1">
          <mxGeometry x="631" y="598" width="20" height="20" as="geometry" />
        </mxCell>
        <mxCell id="oNooGlTdRXXxpe_JB3kV-180" value="" style="endArrow=none;html=1;rounded=0;strokeWidth=2;" parent="1" edge="1">
          <mxGeometry width="50" height="50" relative="1" as="geometry">
            <mxPoint x="250.89999999999998" y="894" as="sourcePoint" />
            <mxPoint x="250.89999999999998" y="874" as="targetPoint" />
          </mxGeometry>
        </mxCell>
        <mxCell id="oNooGlTdRXXxpe_JB3kV-181" value="" style="pointerEvents=1;verticalLabelPosition=bottom;shadow=0;dashed=0;align=center;html=1;verticalAlign=top;shape=mxgraph.electrical.signal_sources.signal_ground;strokeWidth=2;" parent="1" vertex="1">
          <mxGeometry x="240" y="888" width="22" height="20" as="geometry" />
        </mxCell>
        <mxCell id="oNooGlTdRXXxpe_JB3kV-182" value="" style="pointerEvents=1;verticalLabelPosition=bottom;shadow=0;dashed=0;align=center;html=1;verticalAlign=top;shape=mxgraph.electrical.signal_sources.source;aspect=fixed;points=[[0.5,0,0],[1,0.5,0],[0.5,1,0],[0,0.5,0]];elSignalType=dc2;strokeWidth=2;" parent="1" vertex="1">
          <mxGeometry x="226" y="824" width="50" height="50" as="geometry" />
        </mxCell>
        <mxCell id="oNooGlTdRXXxpe_JB3kV-183" value="" style="endArrow=none;html=1;rounded=0;strokeWidth=2;" parent="1" edge="1">
          <mxGeometry width="50" height="50" relative="1" as="geometry">
            <mxPoint x="580.9000000000001" y="894" as="sourcePoint" />
            <mxPoint x="580.9000000000001" y="874" as="targetPoint" />
          </mxGeometry>
        </mxCell>
        <mxCell id="oNooGlTdRXXxpe_JB3kV-184" value="" style="pointerEvents=1;verticalLabelPosition=bottom;shadow=0;dashed=0;align=center;html=1;verticalAlign=top;shape=mxgraph.electrical.signal_sources.signal_ground;strokeWidth=2;" parent="1" vertex="1">
          <mxGeometry x="570" y="888" width="22" height="20" as="geometry" />
        </mxCell>
        <mxCell id="oNooGlTdRXXxpe_JB3kV-185" value="" style="pointerEvents=1;verticalLabelPosition=bottom;shadow=0;dashed=0;align=center;html=1;verticalAlign=top;shape=mxgraph.electrical.signal_sources.source;aspect=fixed;points=[[0.5,0,0],[1,0.5,0],[0.5,1,0],[0,0.5,0]];elSignalType=dc2;strokeWidth=2;" parent="1" vertex="1">
          <mxGeometry x="556" y="824" width="50" height="50" as="geometry" />
        </mxCell>
        <mxCell id="oNooGlTdRXXxpe_JB3kV-186" value="&lt;font color=&quot;#ff0000&quot; style=&quot;font-size: 18px;&quot;&gt;&lt;b style=&quot;&quot;&gt;$$V_\text{cmi}$$&lt;/b&gt;&lt;/font&gt;" style="text;html=1;align=center;verticalAlign=middle;whiteSpace=wrap;rounded=0;strokeWidth=2;" parent="1" vertex="1">
          <mxGeometry x="91" y="708" width="59" height="30" as="geometry" />
        </mxCell>
        <mxCell id="oNooGlTdRXXxpe_JB3kV-187" value="&lt;font color=&quot;#ff0000&quot; style=&quot;font-size: 18px;&quot;&gt;&lt;b style=&quot;&quot;&gt;$$V_\text{cmi}$$&lt;/b&gt;&lt;/font&gt;" style="text;html=1;align=center;verticalAlign=middle;whiteSpace=wrap;rounded=0;strokeWidth=2;" parent="1" vertex="1">
          <mxGeometry x="679" y="708" width="60" height="30" as="geometry" />
        </mxCell>
        <mxCell id="oNooGlTdRXXxpe_JB3kV-188" value="&lt;font color=&quot;#ff0000&quot; style=&quot;font-size: 18px;&quot;&gt;&lt;b style=&quot;&quot;&gt;$$V_\text{cmr}+\Delta$$&lt;/b&gt;&lt;/font&gt;" style="text;html=1;align=center;verticalAlign=middle;whiteSpace=wrap;rounded=0;strokeWidth=2;" parent="1" vertex="1">
          <mxGeometry x="340" y="716" width="60" height="30" as="geometry" />
        </mxCell>
        <mxCell id="oNooGlTdRXXxpe_JB3kV-189" value="&lt;font color=&quot;#ff0000&quot; style=&quot;font-size: 18px;&quot;&gt;&lt;b style=&quot;&quot;&gt;$$V_\text{cmr}-\Delta$$&lt;/b&gt;&lt;/font&gt;" style="text;html=1;align=center;verticalAlign=middle;whiteSpace=wrap;rounded=0;strokeWidth=2;" parent="1" vertex="1">
          <mxGeometry x="435" y="714" width="60" height="30" as="geometry" />
        </mxCell>
        <mxCell id="oNooGlTdRXXxpe_JB3kV-190" value="&lt;font color=&quot;#cc00cc&quot; style=&quot;font-size: 16px;&quot;&gt;$$I_\text{ip0}$$&lt;/font&gt;" style="text;html=1;align=center;verticalAlign=middle;whiteSpace=wrap;rounded=0;strokeWidth=2;" parent="1" vertex="1">
          <mxGeometry x="181" y="264" width="60" height="30" as="geometry" />
        </mxCell>
        <mxCell id="oNooGlTdRXXxpe_JB3kV-192" value="&lt;font color=&quot;#006600&quot; style=&quot;font-size: 16px;&quot;&gt;$$I_\text{rp0}$$&lt;/font&gt;" style="text;html=1;align=center;verticalAlign=middle;whiteSpace=wrap;rounded=0;strokeWidth=2;" parent="1" vertex="1">
          <mxGeometry x="260" y="264" width="60" height="30" as="geometry" />
        </mxCell>
        <mxCell id="oNooGlTdRXXxpe_JB3kV-193" value="&lt;font color=&quot;#006600&quot; style=&quot;font-size: 16px;&quot;&gt;$$I_\text{rm0}$$&lt;/font&gt;" style="text;html=1;align=center;verticalAlign=middle;whiteSpace=wrap;rounded=0;strokeWidth=2;" parent="1" vertex="1">
          <mxGeometry x="511" y="264" width="60" height="30" as="geometry" />
        </mxCell>
        <mxCell id="oNooGlTdRXXxpe_JB3kV-194" value="&lt;font color=&quot;#cc00cc&quot; style=&quot;font-size: 16px;&quot;&gt;$$I_\text{im0}$$&lt;/font&gt;" style="text;html=1;align=center;verticalAlign=middle;whiteSpace=wrap;rounded=0;strokeWidth=2;" parent="1" vertex="1">
          <mxGeometry x="590" y="264" width="60" height="30" as="geometry" />
        </mxCell>
        <mxCell id="oNooGlTdRXXxpe_JB3kV-195" value="&lt;font color=&quot;#cc00cc&quot; style=&quot;font-size: 16px;&quot;&gt;$$I_\text{ip}$$&lt;/font&gt;" style="text;html=1;align=center;verticalAlign=middle;whiteSpace=wrap;rounded=0;strokeWidth=2;" parent="1" vertex="1">
          <mxGeometry x="182" y="648" width="60" height="30" as="geometry" />
        </mxCell>
        <mxCell id="oNooGlTdRXXxpe_JB3kV-196" value="&lt;font color=&quot;#006600&quot; style=&quot;font-size: 16px;&quot;&gt;$$I_\text{rp}$$&lt;/font&gt;" style="text;html=1;align=center;verticalAlign=middle;whiteSpace=wrap;rounded=0;strokeWidth=2;" parent="1" vertex="1">
          <mxGeometry x="261" y="648" width="60" height="30" as="geometry" />
        </mxCell>
        <mxCell id="oNooGlTdRXXxpe_JB3kV-197" value="&lt;font color=&quot;#006600&quot; style=&quot;font-size: 16px;&quot;&gt;$$I_\text{rm}$$&lt;/font&gt;" style="text;html=1;align=center;verticalAlign=middle;whiteSpace=wrap;rounded=0;strokeWidth=2;" parent="1" vertex="1">
          <mxGeometry x="512" y="648" width="60" height="30" as="geometry" />
        </mxCell>
        <mxCell id="oNooGlTdRXXxpe_JB3kV-198" value="&lt;font color=&quot;#cc00cc&quot; style=&quot;font-size: 16px;&quot;&gt;$$I_\text{im}$$&lt;/font&gt;" style="text;html=1;align=center;verticalAlign=middle;whiteSpace=wrap;rounded=0;strokeWidth=2;" parent="1" vertex="1">
          <mxGeometry x="591" y="648" width="60" height="30" as="geometry" />
        </mxCell>
        <mxCell id="oNooGlTdRXXxpe_JB3kV-201" value="&lt;font size=&quot;1&quot; color=&quot;#ea6b66&quot; style=&quot;&quot;&gt;&lt;span style=&quot;font-size: 20px;&quot;&gt;&lt;b&gt;(a) sample&lt;/b&gt;&lt;/span&gt;&lt;/font&gt;" style="text;html=1;align=center;verticalAlign=middle;whiteSpace=wrap;rounded=0;strokeWidth=2;" parent="1" vertex="1">
          <mxGeometry x="311" y="516" width="199" height="30" as="geometry" />
        </mxCell>
        <mxCell id="oNooGlTdRXXxpe_JB3kV-203" value="&lt;font size=&quot;1&quot; color=&quot;#ea6b66&quot; style=&quot;&quot;&gt;&lt;span style=&quot;font-size: 20px;&quot;&gt;&lt;b&gt;(b) compare start&lt;/b&gt;&lt;/span&gt;&lt;/font&gt;" style="text;html=1;align=center;verticalAlign=middle;whiteSpace=wrap;rounded=0;strokeWidth=2;" parent="1" vertex="1">
          <mxGeometry x="320" y="900" width="199" height="30" as="geometry" />
        </mxCell>
        <mxCell id="oNooGlTdRXXxpe_JB3kV-204" value="" style="verticalLabelPosition=bottom;shadow=0;dashed=0;align=center;html=1;verticalAlign=top;shape=mxgraph.electrical.transistors.nmos;pointerEvents=1;strokeWidth=2;" parent="1" vertex="1">
          <mxGeometry x="133" y="1050" width="60" height="100" as="geometry" />
        </mxCell>
        <mxCell id="oNooGlTdRXXxpe_JB3kV-205" value="" style="verticalLabelPosition=bottom;shadow=0;dashed=0;align=center;html=1;verticalAlign=top;shape=mxgraph.electrical.transistors.nmos;pointerEvents=1;direction=east;flipH=1;strokeWidth=2;" parent="1" vertex="1">
          <mxGeometry x="313" y="1050" width="60" height="100" as="geometry" />
        </mxCell>
        <mxCell id="oNooGlTdRXXxpe_JB3kV-206" value="" style="endArrow=none;html=1;rounded=0;strokeWidth=2;" parent="1" edge="1">
          <mxGeometry width="50" height="50" relative="1" as="geometry">
            <mxPoint x="193" y="1170" as="sourcePoint" />
            <mxPoint x="313" y="1170" as="targetPoint" />
          </mxGeometry>
        </mxCell>
        <mxCell id="oNooGlTdRXXxpe_JB3kV-207" value="" style="endArrow=none;html=1;rounded=0;strokeWidth=2;" parent="1" edge="1">
          <mxGeometry width="50" height="50" relative="1" as="geometry">
            <mxPoint x="193" y="1160" as="sourcePoint" />
            <mxPoint x="193" y="1140" as="targetPoint" />
            <Array as="points">
              <mxPoint x="193" y="1170" />
            </Array>
          </mxGeometry>
        </mxCell>
        <mxCell id="oNooGlTdRXXxpe_JB3kV-208" value="" style="endArrow=none;html=1;rounded=0;strokeWidth=2;" parent="1" edge="1">
          <mxGeometry width="50" height="50" relative="1" as="geometry">
            <mxPoint x="313" y="1160" as="sourcePoint" />
            <mxPoint x="313" y="1140" as="targetPoint" />
            <Array as="points">
              <mxPoint x="313" y="1170" />
            </Array>
          </mxGeometry>
        </mxCell>
        <mxCell id="oNooGlTdRXXxpe_JB3kV-209" value="" style="endArrow=none;html=1;rounded=0;exitX=0.5;exitY=0;exitDx=0;exitDy=0;exitPerimeter=0;strokeWidth=2;" parent="1" edge="1">
          <mxGeometry width="50" height="50" relative="1" as="geometry">
            <mxPoint x="253" y="1226" as="sourcePoint" />
            <mxPoint x="253" y="1170" as="targetPoint" />
          </mxGeometry>
        </mxCell>
        <mxCell id="oNooGlTdRXXxpe_JB3kV-210" value="" style="endArrow=none;html=1;rounded=0;strokeWidth=2;" parent="1" edge="1">
          <mxGeometry width="50" height="50" relative="1" as="geometry">
            <mxPoint x="193" y="1060" as="sourcePoint" />
            <mxPoint x="193" y="990" as="targetPoint" />
          </mxGeometry>
        </mxCell>
        <mxCell id="oNooGlTdRXXxpe_JB3kV-211" value="" style="endArrow=none;html=1;rounded=0;strokeWidth=2;" parent="1" edge="1">
          <mxGeometry width="50" height="50" relative="1" as="geometry">
            <mxPoint x="313" y="1060" as="sourcePoint" />
            <mxPoint x="313" y="1009" as="targetPoint" />
          </mxGeometry>
        </mxCell>
        <mxCell id="oNooGlTdRXXxpe_JB3kV-212" value="&lt;font color=&quot;#cc00cc&quot; style=&quot;font-size: 16px;&quot;&gt;$$V_\text{ip}$$&lt;/font&gt;" style="text;html=1;align=center;verticalAlign=middle;whiteSpace=wrap;rounded=0;strokeWidth=2;" parent="1" vertex="1">
          <mxGeometry x="93" y="1070" width="60" height="30" as="geometry" />
        </mxCell>
        <mxCell id="oNooGlTdRXXxpe_JB3kV-213" value="&lt;font color=&quot;#006600&quot; style=&quot;font-size: 16px;&quot;&gt;$$V_\text{rp}$$&lt;/font&gt;" style="text;html=1;align=center;verticalAlign=middle;whiteSpace=wrap;rounded=0;strokeWidth=2;" parent="1" vertex="1">
          <mxGeometry x="353" y="1070" width="60" height="30" as="geometry" />
        </mxCell>
        <mxCell id="oNooGlTdRXXxpe_JB3kV-214" value="" style="verticalLabelPosition=bottom;shadow=0;dashed=0;align=center;html=1;verticalAlign=top;shape=mxgraph.electrical.transistors.nmos;pointerEvents=1;strokeWidth=2;" parent="1" vertex="1">
          <mxGeometry x="463" y="1050" width="60" height="101" as="geometry" />
        </mxCell>
        <mxCell id="oNooGlTdRXXxpe_JB3kV-215" value="" style="verticalLabelPosition=bottom;shadow=0;dashed=0;align=center;html=1;verticalAlign=top;shape=mxgraph.electrical.transistors.nmos;pointerEvents=1;direction=east;flipH=1;strokeWidth=2;" parent="1" vertex="1">
          <mxGeometry x="643" y="1050" width="60" height="100" as="geometry" />
        </mxCell>
        <mxCell id="oNooGlTdRXXxpe_JB3kV-216" value="" style="endArrow=none;html=1;rounded=0;strokeWidth=2;" parent="1" edge="1">
          <mxGeometry width="50" height="50" relative="1" as="geometry">
            <mxPoint x="523" y="1170" as="sourcePoint" />
            <mxPoint x="643" y="1170" as="targetPoint" />
          </mxGeometry>
        </mxCell>
        <mxCell id="oNooGlTdRXXxpe_JB3kV-217" value="" style="endArrow=none;html=1;rounded=0;strokeWidth=2;" parent="1" edge="1">
          <mxGeometry width="50" height="50" relative="1" as="geometry">
            <mxPoint x="523" y="1160" as="sourcePoint" />
            <mxPoint x="523" y="1140" as="targetPoint" />
            <Array as="points">
              <mxPoint x="523" y="1170" />
            </Array>
          </mxGeometry>
        </mxCell>
        <mxCell id="oNooGlTdRXXxpe_JB3kV-218" value="" style="endArrow=none;html=1;rounded=0;strokeWidth=2;" parent="1" edge="1">
          <mxGeometry width="50" height="50" relative="1" as="geometry">
            <mxPoint x="643" y="1160" as="sourcePoint" />
            <mxPoint x="643" y="1140" as="targetPoint" />
            <Array as="points">
              <mxPoint x="643" y="1170" />
            </Array>
          </mxGeometry>
        </mxCell>
        <mxCell id="oNooGlTdRXXxpe_JB3kV-219" value="" style="endArrow=none;html=1;rounded=0;exitDx=0;exitDy=0;exitPerimeter=0;strokeWidth=2;" parent="1" source="oNooGlTdRXXxpe_JB3kV-230" edge="1">
          <mxGeometry width="50" height="50" relative="1" as="geometry">
            <mxPoint x="533" y="1220" as="sourcePoint" />
            <mxPoint x="583" y="1170" as="targetPoint" />
          </mxGeometry>
        </mxCell>
        <mxCell id="oNooGlTdRXXxpe_JB3kV-220" value="" style="endArrow=none;html=1;rounded=0;strokeWidth=2;" parent="1" edge="1">
          <mxGeometry width="50" height="50" relative="1" as="geometry">
            <mxPoint x="523" y="1060" as="sourcePoint" />
            <mxPoint x="523" y="1039" as="targetPoint" />
          </mxGeometry>
        </mxCell>
        <mxCell id="oNooGlTdRXXxpe_JB3kV-221" value="" style="endArrow=none;html=1;rounded=0;strokeWidth=2;" parent="1" edge="1">
          <mxGeometry width="50" height="50" relative="1" as="geometry">
            <mxPoint x="643" y="1060" as="sourcePoint" />
            <mxPoint x="643" y="990" as="targetPoint" />
          </mxGeometry>
        </mxCell>
        <mxCell id="oNooGlTdRXXxpe_JB3kV-222" value="&lt;font color=&quot;#006600&quot; style=&quot;font-size: 16px;&quot;&gt;$$V_\text{rm}$$&lt;/font&gt;" style="text;html=1;align=center;verticalAlign=middle;whiteSpace=wrap;rounded=0;strokeWidth=2;" parent="1" vertex="1">
          <mxGeometry x="423" y="1070" width="60" height="30" as="geometry" />
        </mxCell>
        <mxCell id="oNooGlTdRXXxpe_JB3kV-223" value="&lt;font color=&quot;#cc00cc&quot; style=&quot;font-size: 16px;&quot;&gt;$$V_\text{im}$$&lt;/font&gt;" style="text;html=1;align=center;verticalAlign=middle;whiteSpace=wrap;rounded=0;strokeWidth=2;" parent="1" vertex="1">
          <mxGeometry x="683" y="1070" width="60" height="30" as="geometry" />
        </mxCell>
        <mxCell id="oNooGlTdRXXxpe_JB3kV-224" value="" style="endArrow=none;html=1;rounded=0;strokeWidth=2;" parent="1" edge="1">
          <mxGeometry width="50" height="50" relative="1" as="geometry">
            <mxPoint x="193" y="1040" as="sourcePoint" />
            <mxPoint x="523" y="1040" as="targetPoint" />
          </mxGeometry>
        </mxCell>
        <mxCell id="oNooGlTdRXXxpe_JB3kV-225" value="" style="endArrow=none;html=1;rounded=0;strokeWidth=2;" parent="1" edge="1">
          <mxGeometry width="50" height="50" relative="1" as="geometry">
            <mxPoint x="313" y="1010" as="sourcePoint" />
            <mxPoint x="643" y="1010" as="targetPoint" />
          </mxGeometry>
        </mxCell>
        <mxCell id="oNooGlTdRXXxpe_JB3kV-226" value="" style="shape=waypoint;sketch=0;fillStyle=solid;size=6;pointerEvents=1;points=[];fillColor=none;resizable=0;rotatable=0;perimeter=centerPerimeter;snapToPoint=1;strokeWidth=2;" parent="1" vertex="1">
          <mxGeometry x="183" y="1030" width="20" height="20" as="geometry" />
        </mxCell>
        <mxCell id="oNooGlTdRXXxpe_JB3kV-228" value="" style="shape=waypoint;sketch=0;fillStyle=solid;size=6;pointerEvents=1;points=[];fillColor=none;resizable=0;rotatable=0;perimeter=centerPerimeter;snapToPoint=1;strokeWidth=2;" parent="1" vertex="1">
          <mxGeometry x="243" y="1160" width="20" height="20" as="geometry" />
        </mxCell>
        <mxCell id="oNooGlTdRXXxpe_JB3kV-229" value="" style="endArrow=none;html=1;rounded=0;exitX=0.5;exitY=0;exitDx=0;exitDy=0;exitPerimeter=0;strokeWidth=2;" parent="1" target="oNooGlTdRXXxpe_JB3kV-230" edge="1">
          <mxGeometry width="50" height="50" relative="1" as="geometry">
            <mxPoint x="583" y="1226" as="sourcePoint" />
            <mxPoint x="583" y="1170" as="targetPoint" />
          </mxGeometry>
        </mxCell>
        <mxCell id="oNooGlTdRXXxpe_JB3kV-230" value="" style="shape=waypoint;sketch=0;fillStyle=solid;size=6;pointerEvents=1;points=[];fillColor=none;resizable=0;rotatable=0;perimeter=centerPerimeter;snapToPoint=1;strokeWidth=2;" parent="1" vertex="1">
          <mxGeometry x="573" y="1160" width="20" height="20" as="geometry" />
        </mxCell>
        <mxCell id="oNooGlTdRXXxpe_JB3kV-232" value="" style="shape=waypoint;sketch=0;fillStyle=solid;size=6;pointerEvents=1;points=[];fillColor=none;resizable=0;rotatable=0;perimeter=centerPerimeter;snapToPoint=1;strokeWidth=2;" parent="1" vertex="1">
          <mxGeometry x="633" y="1000" width="20" height="20" as="geometry" />
        </mxCell>
        <mxCell id="oNooGlTdRXXxpe_JB3kV-233" value="" style="endArrow=none;html=1;rounded=0;strokeWidth=2;" parent="1" edge="1">
          <mxGeometry width="50" height="50" relative="1" as="geometry">
            <mxPoint x="252.89999999999998" y="1296" as="sourcePoint" />
            <mxPoint x="252.89999999999998" y="1276" as="targetPoint" />
          </mxGeometry>
        </mxCell>
        <mxCell id="oNooGlTdRXXxpe_JB3kV-234" value="" style="pointerEvents=1;verticalLabelPosition=bottom;shadow=0;dashed=0;align=center;html=1;verticalAlign=top;shape=mxgraph.electrical.signal_sources.signal_ground;strokeWidth=2;" parent="1" vertex="1">
          <mxGeometry x="242" y="1290" width="22" height="20" as="geometry" />
        </mxCell>
        <mxCell id="oNooGlTdRXXxpe_JB3kV-235" value="" style="pointerEvents=1;verticalLabelPosition=bottom;shadow=0;dashed=0;align=center;html=1;verticalAlign=top;shape=mxgraph.electrical.signal_sources.source;aspect=fixed;points=[[0.5,0,0],[1,0.5,0],[0.5,1,0],[0,0.5,0]];elSignalType=dc2;strokeWidth=2;" parent="1" vertex="1">
          <mxGeometry x="228" y="1226" width="50" height="50" as="geometry" />
        </mxCell>
        <mxCell id="oNooGlTdRXXxpe_JB3kV-236" value="" style="endArrow=none;html=1;rounded=0;strokeWidth=2;" parent="1" edge="1">
          <mxGeometry width="50" height="50" relative="1" as="geometry">
            <mxPoint x="582.9000000000001" y="1296" as="sourcePoint" />
            <mxPoint x="582.9000000000001" y="1276" as="targetPoint" />
          </mxGeometry>
        </mxCell>
        <mxCell id="oNooGlTdRXXxpe_JB3kV-237" value="" style="pointerEvents=1;verticalLabelPosition=bottom;shadow=0;dashed=0;align=center;html=1;verticalAlign=top;shape=mxgraph.electrical.signal_sources.signal_ground;strokeWidth=2;" parent="1" vertex="1">
          <mxGeometry x="572" y="1290" width="22" height="20" as="geometry" />
        </mxCell>
        <mxCell id="oNooGlTdRXXxpe_JB3kV-238" value="" style="pointerEvents=1;verticalLabelPosition=bottom;shadow=0;dashed=0;align=center;html=1;verticalAlign=top;shape=mxgraph.electrical.signal_sources.source;aspect=fixed;points=[[0.5,0,0],[1,0.5,0],[0.5,1,0],[0,0.5,0]];elSignalType=dc2;strokeWidth=2;" parent="1" vertex="1">
          <mxGeometry x="558" y="1226" width="50" height="50" as="geometry" />
        </mxCell>
        <mxCell id="oNooGlTdRXXxpe_JB3kV-239" value="&lt;font color=&quot;#ff0000&quot; style=&quot;font-size: 18px;&quot;&gt;&lt;b style=&quot;&quot;&gt;$$V_\text{cmi}+\Delta$$&lt;/b&gt;&lt;/font&gt;" style="text;html=1;align=center;verticalAlign=middle;whiteSpace=wrap;rounded=0;strokeWidth=2;" parent="1" vertex="1">
          <mxGeometry x="93" y="1110" width="59" height="30" as="geometry" />
        </mxCell>
        <mxCell id="oNooGlTdRXXxpe_JB3kV-240" value="&lt;font color=&quot;#ff0000&quot; style=&quot;font-size: 18px;&quot;&gt;&lt;b style=&quot;&quot;&gt;$$V_\text{cmi}-\Delta$$&lt;/b&gt;&lt;/font&gt;" style="text;html=1;align=center;verticalAlign=middle;whiteSpace=wrap;rounded=0;strokeWidth=2;" parent="1" vertex="1">
          <mxGeometry x="681" y="1110" width="60" height="30" as="geometry" />
        </mxCell>
        <mxCell id="oNooGlTdRXXxpe_JB3kV-241" value="&lt;font color=&quot;#ff0000&quot; style=&quot;font-size: 18px;&quot;&gt;&lt;b style=&quot;&quot;&gt;$$V_\text{cmr}+\Delta$$&lt;/b&gt;&lt;/font&gt;" style="text;html=1;align=center;verticalAlign=middle;whiteSpace=wrap;rounded=0;strokeWidth=2;" parent="1" vertex="1">
          <mxGeometry x="342" y="1118" width="60" height="30" as="geometry" />
        </mxCell>
        <mxCell id="oNooGlTdRXXxpe_JB3kV-242" value="&lt;font color=&quot;#ff0000&quot; style=&quot;font-size: 18px;&quot;&gt;&lt;b style=&quot;&quot;&gt;$$V_\text{cmr}-\Delta$$&lt;/b&gt;&lt;/font&gt;" style="text;html=1;align=center;verticalAlign=middle;whiteSpace=wrap;rounded=0;strokeWidth=2;" parent="1" vertex="1">
          <mxGeometry x="437" y="1116" width="60" height="30" as="geometry" />
        </mxCell>
        <mxCell id="oNooGlTdRXXxpe_JB3kV-243" value="&lt;font color=&quot;#cc00cc&quot; style=&quot;font-size: 16px;&quot;&gt;$$I_\text{ip0}$$&lt;/font&gt;" style="text;html=1;align=center;verticalAlign=middle;whiteSpace=wrap;rounded=0;strokeWidth=2;" parent="1" vertex="1">
          <mxGeometry x="184" y="1050" width="60" height="30" as="geometry" />
        </mxCell>
        <mxCell id="oNooGlTdRXXxpe_JB3kV-244" value="&lt;font color=&quot;#006600&quot; style=&quot;font-size: 16px;&quot;&gt;$$I_\text{rp0}$$&lt;/font&gt;" style="text;html=1;align=center;verticalAlign=middle;whiteSpace=wrap;rounded=0;strokeWidth=2;" parent="1" vertex="1">
          <mxGeometry x="263" y="1050" width="60" height="30" as="geometry" />
        </mxCell>
        <mxCell id="oNooGlTdRXXxpe_JB3kV-245" value="&lt;font color=&quot;#006600&quot; style=&quot;font-size: 16px;&quot;&gt;$$I_\text{rm0}$$&lt;/font&gt;" style="text;html=1;align=center;verticalAlign=middle;whiteSpace=wrap;rounded=0;strokeWidth=2;" parent="1" vertex="1">
          <mxGeometry x="514" y="1050" width="60" height="30" as="geometry" />
        </mxCell>
        <mxCell id="oNooGlTdRXXxpe_JB3kV-246" value="&lt;font color=&quot;#cc00cc&quot; style=&quot;font-size: 16px;&quot;&gt;$$I_\text{im0}$$&lt;/font&gt;" style="text;html=1;align=center;verticalAlign=middle;whiteSpace=wrap;rounded=0;strokeWidth=2;" parent="1" vertex="1">
          <mxGeometry x="593" y="1050" width="60" height="30" as="geometry" />
        </mxCell>
        <mxCell id="oNooGlTdRXXxpe_JB3kV-247" value="&lt;font size=&quot;1&quot; color=&quot;#ea6b66&quot; style=&quot;&quot;&gt;&lt;span style=&quot;font-size: 20px;&quot;&gt;&lt;b&gt;(c) compare finish&lt;/b&gt;&lt;/span&gt;&lt;/font&gt;" style="text;html=1;align=center;verticalAlign=middle;whiteSpace=wrap;rounded=0;strokeWidth=2;" parent="1" vertex="1">
          <mxGeometry x="322" y="1302" width="199" height="30" as="geometry" />
        </mxCell>
        <mxCell id="n4MeD3ZmvZ6pYFALy-Wp-1" value="" style="endArrow=none;html=1;rounded=0;fillColor=#d80073;strokeColor=#0000FF;strokeWidth=5;endFill=0;startArrow=blockThin;startFill=1;dashed=1;dashPattern=1 1;" parent="1" edge="1">
          <mxGeometry width="50" height="50" relative="1" as="geometry">
            <mxPoint x="89.52" y="676" as="sourcePoint" />
            <mxPoint x="89.52" y="716" as="targetPoint" />
          </mxGeometry>
        </mxCell>
        <mxCell id="n4MeD3ZmvZ6pYFALy-Wp-2" value="" style="endArrow=none;html=1;rounded=0;fillColor=#d80073;strokeColor=#0000FF;strokeWidth=5;endFill=0;startArrow=blockThin;startFill=1;dashed=1;dashPattern=1 1;" parent="1" edge="1">
          <mxGeometry width="50" height="50" relative="1" as="geometry">
            <mxPoint x="739" y="716" as="sourcePoint" />
            <mxPoint x="739" y="676" as="targetPoint" />
          </mxGeometry>
        </mxCell>
        <mxCell id="IVJJJ41Iw-X6ueQEeiMY-1" value="&lt;font style=&quot;font-size: 14px;&quot;&gt;$$I_{SS}$$&lt;/font&gt;" style="text;html=1;align=center;verticalAlign=middle;whiteSpace=wrap;rounded=0;" vertex="1" parent="1">
          <mxGeometry x="270" y="430" width="60" height="30" as="geometry" />
        </mxCell>
        <mxCell id="IVJJJ41Iw-X6ueQEeiMY-2" value="&lt;font style=&quot;font-size: 14px;&quot;&gt;$$I_{SS}$$&lt;/font&gt;" style="text;html=1;align=center;verticalAlign=middle;whiteSpace=wrap;rounded=0;" vertex="1" parent="1">
          <mxGeometry x="592" y="430" width="60" height="30" as="geometry" />
        </mxCell>
      </root>
    </mxGraphModel>
  </diagram>
</mxfile>
